<svg width="213" height="213" viewBox="0 0 213 213" fill="none" xmlns="http://www.w3.org/2000/svg">
<g filter="url(#filter0_d)">
<path d="M106.5 12.629C150.063 12.629 185.371 47.9374 185.371 91.5C185.371 135.063 150.063 170.371 106.5 170.371C62.9374 170.371 27.629 135.063 27.629 91.5C27.629 47.9374 62.9374 12.629 106.5 12.629Z" fill="#F0D0B4"/>
<path d="M124.903 112.532C135.078 112.532 143.306 119.604 143.306 128.306C143.306 137.009 135.078 144.081 124.903 144.081C124.903 135.378 116.675 128.306 106.5 128.306C106.5 119.604 114.729 112.532 124.903 112.532Z" fill="#EF7385"/>
<path d="M124.903 144.081C124.903 135.369 116.664 128.307 106.5 128.307C96.3356 128.307 88.0967 135.369 88.0967 144.081C88.0967 152.792 96.3356 159.855 106.5 159.855C116.664 159.855 124.903 152.792 124.903 144.081Z" fill="#EF7385"/>
<path d="M95.9838 83.6129C95.9838 84.8492 95.826 86.0584 95.4845 87.215C93.591 94.1817 86.3085 99.3871 77.5806 99.3871C76.8977 99.3871 76.2135 99.3615 75.5305 99.2819L75.4779 99.3345C74.5575 98.4667 73.5061 97.6516 72.3482 96.9686C74.0055 94.6028 74.9516 91.8415 74.9516 88.871C74.9516 82.0879 69.9567 76.3048 62.9374 74.0955V74.0699C66.2763 70.2842 71.6127 67.8387 77.5806 67.8387C79.4471 67.8387 81.2353 68.0749 82.8913 68.5217C90.4896 70.4678 95.9838 76.4884 95.9838 83.6129Z" fill="#EF7385"/>
<path d="M75.4779 99.3345C78.4214 102.147 80.2096 105.854 80.2096 109.903C80.2096 118.606 71.9811 125.677 61.8064 125.677C51.6318 125.677 43.4032 118.606 43.4032 109.903C43.4032 106.933 44.3493 104.172 46.0066 101.806L46.0322 101.78C49.0027 103.594 52.6305 104.645 56.5484 104.645C63.2519 104.645 69.1415 101.569 72.3482 96.9686C73.5061 97.6516 74.5575 98.4667 75.4779 99.3345Z" fill="#EF7385"/>
<path d="M140.677 65.736C141.571 65.3932 142.544 65.2097 143.543 65.2097H144.122C146.882 65.2097 149.458 66.6025 150.957 68.9427L170.937 100.019C171.779 101.306 172.226 102.857 172.226 104.409C172.226 108.904 168.598 112.532 164.103 112.532H163.524C160.764 112.532 158.187 111.139 156.688 108.799L140.677 83.9017L136.708 77.7232C135.866 76.4357 135.419 74.885 135.419 73.333C135.419 71.0993 136.313 69.0479 137.785 67.5755C138.6 66.7604 139.573 66.1301 140.677 65.736Z" fill="#3BAFDA"/>
<path d="M140.677 83.9017V88.871C140.677 93.2356 137.155 96.7581 132.79 96.7581C130.608 96.7581 128.636 95.8646 127.216 94.4448C125.797 93.0251 124.903 91.0533 124.903 88.871V57.3226C124.903 52.958 128.426 49.4355 132.79 49.4355C134.973 49.4355 136.944 50.3289 138.364 51.7487C139.784 53.1685 140.677 55.1403 140.677 57.3226V65.736C139.573 66.1301 138.6 66.7604 137.785 67.5756C136.313 69.048 135.419 71.0993 135.419 73.333C135.419 74.885 135.866 76.4357 136.708 77.7233L140.677 83.9017Z" fill="#3BAFDA"/>
<path d="M117.016 23.1451C121.381 23.1451 124.903 26.6676 124.903 31.0322C124.903 33.2145 124.01 35.1863 122.59 36.6061C121.17 38.0259 119.198 38.9193 117.016 38.9193H106.5C102.135 38.9193 98.6129 35.3968 98.6129 31.0322C98.6129 28.8499 99.5064 26.8782 100.926 25.4584C102.346 24.0386 104.318 23.1451 106.5 23.1451H117.016Z" fill="#3BAFDA"/>
<path d="M107.84 76.3574C108.682 77.645 109.129 79.1957 109.129 80.7477C109.129 82.9813 108.236 85.0327 106.763 86.5051C105.291 87.9775 103.239 88.871 101.006 88.871H100.427C98.6129 88.871 96.8773 88.2664 95.4845 87.215C95.826 86.0584 95.9839 84.8491 95.9839 83.6129C95.9839 76.4883 90.4896 70.4678 82.8913 68.5217L73.6114 54.062C72.7693 52.7744 72.3226 51.2237 72.3226 49.6717C72.3226 47.4381 73.216 45.3867 74.6884 43.9143C76.1609 42.4419 78.2122 41.5484 80.4459 41.5484H81.0248C83.7848 41.5484 86.3612 42.9412 87.8606 45.2814L107.84 76.3574Z" fill="#3BAFDA"/>
<path d="M72.3482 96.9686C69.1415 101.569 63.2519 104.645 56.5484 104.645C52.6305 104.645 49.0027 103.594 46.0322 101.78C41.2479 98.966 38.1451 94.2343 38.1451 88.8709C38.1451 80.1687 46.3737 73.0967 56.5484 73.0967C58.809 73.0967 60.9656 73.4382 62.9374 74.0955C69.9567 76.3047 74.9516 82.0878 74.9516 88.8709C74.9516 91.8414 74.0055 94.6027 72.3482 96.9686Z" fill="#EF7385"/>
<path d="M106.5 10C61.5587 10 25 46.5587 25 91.5C25 136.441 61.5587 173 106.5 173C151.441 173 188 136.441 188 91.5C188 46.5587 151.441 10 106.5 10ZM106.5 167.742C64.4612 167.742 30.2581 133.539 30.2581 91.5C30.2581 49.4612 64.4612 15.2581 106.5 15.2581C148.539 15.2581 182.742 49.4612 182.742 91.5C182.742 133.539 148.539 167.742 106.5 167.742Z" fill="black"/>
<path d="M173.146 98.5848L153.176 67.5204C151.186 64.4266 147.802 62.5807 144.127 62.5807H143.548C143.467 62.5807 143.387 62.6038 143.306 62.6038V57.3226C143.306 51.5228 138.59 46.8065 132.79 46.8065C126.991 46.8065 122.274 51.5228 122.274 57.3226V88.871C122.274 94.6708 126.991 99.3871 132.79 99.3871C137.486 99.3871 141.425 96.2767 142.77 92.0238L154.47 110.222C156.459 113.315 159.843 115.161 163.518 115.161H164.097C170.028 115.161 174.855 110.335 174.855 104.404C174.855 102.337 174.263 100.323 173.146 98.5848ZM138.048 88.871C138.048 91.7709 135.69 94.129 132.79 94.129C129.89 94.129 127.532 91.7709 127.532 88.871V57.3226C127.532 54.4227 129.89 52.0645 132.79 52.0645C135.69 52.0645 138.048 54.4227 138.048 57.3226V64.1429C134.915 66.0248 132.79 69.4241 132.79 73.3356C132.79 75.4023 133.382 77.4165 134.499 79.1546L138.048 84.6745V88.871ZM164.097 109.903H163.518C161.639 109.903 159.909 108.96 158.888 107.377L138.919 76.3125C138.351 75.4229 138.048 74.3959 138.048 73.3381C138.048 70.3047 140.514 67.8387 143.548 67.8387H144.127C146.006 67.8387 147.737 68.7822 148.757 70.3651L168.726 101.429C169.294 102.319 169.597 103.346 169.597 104.404C169.597 107.437 167.131 109.903 164.097 109.903Z" fill="black"/>
<path d="M96.8889 90.8928C98.0211 91.2869 99.2175 91.5 100.422 91.5H101.001C106.931 91.5 111.758 86.6733 111.758 80.7426C111.758 78.6758 111.166 76.6616 110.049 74.9235L90.0788 43.8591C88.0891 40.7653 84.7052 38.9194 81.03 38.9194H80.451C74.5203 38.9194 69.6935 43.7461 69.6935 49.6768C69.6935 51.7436 70.2853 53.7577 71.4022 55.4959L77.6487 65.2123C77.6281 65.2123 77.6037 65.2097 77.5806 65.2097C71.6307 65.2097 66.1043 67.365 62.1325 71.1456C60.3494 70.7181 58.4829 70.4678 56.5484 70.4678C44.9514 70.4678 35.5161 78.7258 35.5161 88.871C35.5161 94.2998 38.235 99.1715 42.5226 102.545C41.3737 104.851 40.7742 107.355 40.7742 109.903C40.7742 120.048 50.2094 128.306 61.8064 128.306C73.4035 128.306 82.8387 120.048 82.8387 109.903C82.8387 107.038 82.0556 104.282 80.6615 101.795C87.9607 100.852 94.0519 96.6348 96.8889 90.8928ZM75.8245 52.6512C75.2546 51.7616 74.9516 50.7346 74.9516 49.6768C74.9516 46.6434 77.4176 44.1774 80.451 44.1774H81.03C82.9093 44.1774 84.6397 45.121 85.6603 46.7038L105.63 77.7682C106.197 78.6578 106.5 79.6848 106.5 80.7426C106.5 83.776 104.034 86.242 101.001 86.242H100.422C99.7413 86.242 99.0699 86.0995 98.4396 85.8556C98.5449 85.12 98.6129 84.3729 98.6129 83.6129C98.6129 75.618 92.7451 68.8169 84.5897 66.2829L75.8245 52.6512ZM77.5806 70.4678C86.2803 70.4678 93.3548 76.3651 93.3548 83.6129C93.3548 90.8607 86.2803 96.7581 77.5806 96.7581C77.1891 96.7581 76.8053 96.726 76.4189 96.7029C76.2212 96.5347 76.0351 96.3614 75.8297 96.201C76.9491 93.9532 77.5806 91.4769 77.5806 88.871C77.5806 82.3433 73.6628 76.6116 67.7898 73.3445C70.5562 71.5165 74.0029 70.4678 77.5806 70.4678ZM56.5484 75.7258C65.2481 75.7258 72.3226 81.6232 72.3226 88.871C72.3226 96.1188 65.2481 102.016 56.5484 102.016C47.8487 102.016 40.7742 96.1188 40.7742 88.871C40.7742 81.6232 47.8487 75.7258 56.5484 75.7258ZM61.8064 123.048C53.1068 123.048 46.0322 117.151 46.0322 109.903C46.0322 108.313 46.4032 106.75 47.0708 105.279C49.9232 106.544 53.1388 107.274 56.5484 107.274C63.0953 107.274 68.949 104.643 72.8091 100.526C75.822 102.984 77.5806 106.346 77.5806 109.903C77.5806 117.151 70.5061 123.048 61.8064 123.048Z" fill="black"/>
<path d="M124.903 109.903C114.277 109.903 105.488 116.842 104.089 125.808C93.6257 126.861 85.4677 134.648 85.4677 144.081C85.4677 154.226 94.903 162.484 106.5 162.484C117.127 162.484 125.915 155.545 127.314 146.579C137.778 145.526 145.935 137.739 145.935 128.306C145.935 118.161 136.5 109.903 124.903 109.903ZM106.5 157.226C97.8003 157.226 90.7258 151.328 90.7258 144.081C90.7258 136.833 97.8003 130.936 106.5 130.936C115.2 130.936 122.274 136.833 122.274 144.081C122.274 151.328 115.2 157.226 106.5 157.226ZM127.264 141.289C125.863 133.296 118.584 126.995 109.41 125.875C110.785 119.785 117.202 115.161 124.903 115.161C133.603 115.161 140.677 121.059 140.677 128.306C140.677 134.884 134.843 140.335 127.264 141.289Z" fill="black"/>
<path d="M106.5 41.5484H117.016C122.816 41.5484 127.532 36.832 127.532 31.0322C127.532 25.2325 122.816 20.5161 117.016 20.5161H106.5C100.7 20.5161 95.9839 25.2325 95.9839 31.0322C95.9839 36.832 100.7 41.5484 106.5 41.5484ZM106.5 25.7742H117.016C119.916 25.7742 122.274 28.1323 122.274 31.0322C122.274 33.9321 119.916 36.2903 117.016 36.2903H106.5C103.6 36.2903 101.242 33.9321 101.242 31.0322C101.242 28.1323 103.6 25.7742 106.5 25.7742Z" fill="black"/>
</g>
<defs>
<filter id="filter0_d" x="0" y="0" width="213" height="213" filterUnits="userSpaceOnUse" color-interpolation-filters="sRGB">
<feFlood flood-opacity="0" result="BackgroundImageFix"/>
<feColorMatrix in="SourceAlpha" type="matrix" values="0 0 0 0 0 0 0 0 0 0 0 0 0 0 0 0 0 0 127 0"/>
<feOffset dy="15"/>
<feGaussianBlur stdDeviation="12.5"/>
<feColorMatrix type="matrix" values="0 0 0 0 0 0 0 0 0 0 0 0 0 0 0 0 0 0 0.25 0"/>
<feBlend mode="normal" in2="BackgroundImageFix" result="effect1_dropShadow"/>
<feBlend mode="normal" in="SourceGraphic" in2="effect1_dropShadow" result="shape"/>
</filter>
</defs>
</svg>
