<?xml version="1.0" encoding="utf-8"?>
<!-- Generator: Adobe Illustrator 16.0.0, SVG Export Plug-In . SVG Version: 6.00 Build 0)  -->
<!DOCTYPE svg PUBLIC "-//W3C//DTD SVG 1.1//EN" "http://www.w3.org/Graphics/SVG/1.1/DTD/svg11.dtd">
<svg version="1.1" id="Layer_1" xmlns="http://www.w3.org/2000/svg" xmlns:xlink="http://www.w3.org/1999/xlink" x="0px" y="0px"
	 width="314px" height="314px" viewBox="0 0 314 314" enable-background="new 0 0 314 314" xml:space="preserve">
<g>
	<defs>
		<rect id="SVGID_1_" x="25" y="10" width="264" height="264"/>
	</defs>
	<clipPath id="SVGID_2_">
		<use xlink:href="#SVGID_1_"  overflow="visible"/>
	</clipPath>
	<g clip-path="url(#SVGID_2_)">
		<path fill="#1ABC9C" d="M284.742,142.002c0,70.549-57.192,127.741-127.741,127.741S29.26,212.551,29.26,142.002
			S86.452,14.261,157.001,14.261S284.742,71.453,284.742,142.002z"/>
		<path href="#peroxissomos" id="organela3" fill="#F5F7FA" d="M282.825,163.932c-3.491,20.31-11.751,38.918-23.632,54.715
			c-7.153,9.58-15.671,18.097-25.207,25.293c-1.534,0.127-3.066,0.256-4.599,0.256c-30.574,0-55.354-28.615-55.354-63.871
			c0-35.257,24.78-63.87,55.354-63.87c25.633,0,47.135,20.14,53.438,47.435V163.932z"/>
		<path href="#membrana-plasmatica" id="organela2" fill="#FF958A" d="M262.814,70.424c-0.427,0.511-0.853,1.023-1.32,1.491
			c-3.875,3.832-9.198,6.217-15.073,6.217h-42.581c-11.753,0-21.29-9.539-21.29-21.291c0-5.875,2.385-11.198,6.217-15.074
			c3.875-3.832,9.198-6.216,15.073-6.216h42.581c11.751,0,21.29,9.537,21.29,21.29C267.71,61.994,265.878,66.719,262.814,70.424z"/>
		<path href="#membrana-plasmatica" id="orgnela2" fill="#FF958A" d="M93.301,252.711c-12.604-7.238-23.845-16.564-33.214-27.55
			c2.727-8.687,10.689-15.03,20.27-15.03h42.58c11.751,0,21.29,9.537,21.29,21.29c0,11.751-9.539,21.29-21.29,21.29H93.301z"/>
		<path href="#nucleo" id="organela1" fill="#F9D48A" d="M163.345,87.457c1.449-0.553,2.939-0.809,4.472-0.809h1.235
			c6.898,0,13.115,5.194,13.497,12.092c0.383,7.366-5.493,13.456-12.774,13.456h-1.958c-1.532,0-3.022-0.256-4.472-0.809
			l-7.664-2.896c-0.979-0.383-1.959-0.553-2.938-0.553c-4.515,0-8.517,3.661-8.517,8.516c0,1.576-0.085,3.108-0.297,4.599
			c-0.426,3.661,1.574,7.152,4.896,8.643l7.834,3.576c1.405,0.64,2.641,1.491,3.747,2.599l1.363,1.362
			c5.152,5.152,4.981,13.582-0.512,18.522c-5.11,4.642-13.156,3.917-18.055-0.979l-0.851-0.852
			c-1.107-1.106-1.959-2.341-2.597-3.747l-4.258-9.368c-5.493,6.642-13.159,11.412-21.888,13.2l4.259,11.369
			c0.553,1.449,0.809,2.938,0.809,4.472v1.959c0,7.28-6.09,13.156-13.456,12.773c-6.898-0.382-12.092-6.602-12.092-13.497v-1.235
			c0-1.533,0.255-3.022,0.809-4.472l4.258-11.369c-8.729-1.788-16.394-6.558-21.887-13.2l-4.258,9.368
			c-0.639,1.406-1.489,2.641-2.598,3.747l-1.361,1.364c-5.152,5.151-13.583,4.981-18.522-0.512
			c-4.641-5.11-3.918-13.157,0.979-18.055l0.853-0.85c1.106-1.108,2.342-1.959,3.747-2.599l6.429-2.938
			c4.173-1.873,6.516-6.217,6.131-10.816c-0.085-0.979-0.127-2.043-0.127-3.064c0-5.919-5.919-10.007-11.454-7.963l-7.665,2.896
			c-1.447,0.553-2.938,0.809-4.471,0.809h-1.958c-3.237,0-6.175-1.194-8.431-3.194c-2.853-2.47-4.556-6.175-4.344-10.262
			c0.383-6.898,6.6-12.092,13.498-12.092h1.234c1.532,0,3.023,0.256,4.471,0.809l7.665,2.896c0.979,0.383,1.959,0.553,2.938,0.553
			c4.514,0,8.516-3.662,8.516-8.516c0-1.576,0.085-3.108,0.298-4.599c0.426-3.661-1.574-7.154-4.896-8.643l-7.834-3.578
			c-1.405-0.638-2.641-1.491-3.747-2.597l-1.363-1.362c-5.152-5.152-4.982-13.583,0.511-18.523
			c5.11-4.641,13.157-3.917,18.054,0.979l0.852,0.85c1.108,1.108,1.959,2.343,2.598,3.749l4.258,9.366
			c5.493-6.643,13.158-11.41,21.887-13.198L93.94,33.464c-0.554-1.447-0.809-2.938-0.809-4.47v-1.958
			c0-7.281,6.089-13.157,13.456-12.774c4.385,0.256,8.09,2.853,10.175,6.473c1.235,2.085,1.917,4.514,1.917,7.025v1.235
			c0,1.532-0.256,3.023-0.809,4.47l-4.259,11.371c8.729,1.788,16.395,6.555,21.888,13.198l4.258-9.366
			c0.638-1.406,1.489-2.641,2.597-3.749l1.362-1.362c5.152-5.152,13.582-4.981,18.521,0.512c4.642,5.108,3.918,13.156-0.979,18.053
			l-0.852,0.853c-1.106,1.106-2.342,1.958-3.747,2.597l-6.984,3.194c-3.831,1.747-6.046,5.707-5.619,9.921
			c0.085,1.193,0.17,2.47,0.17,3.705c0,5.919,5.919,10.007,11.454,7.963L163.345,87.457z"/>
		<path fill="#232323" d="M101.646,56.841h8.517v8.516h-8.517V56.841z"/>
		<path fill="#232323" d="M80.357,73.874h8.517v8.516h-8.517V73.874z"/>
		<path fill="#232323" d="M84.615,95.164h8.516v8.517h-8.516V95.164z"/>
		<path fill="#232323" d="M101.646,133.486h8.517v8.516h-8.517V133.486z"/>
		<path fill="#232323" d="M122.937,116.454h8.517v8.516h-8.517V116.454z"/>
		<path fill="#232323" d="M80.357,116.454h8.516v8.516h-8.516V116.454z"/>
		<path fill="#232323" d="M110.162,95.164h8.517v8.517h-8.517V95.164z"/>
		<path fill="#232323" d="M122.937,69.615h8.517v8.517h-8.517V69.615z"/>
		<path fill="#232323" d="M101.646,73.874h8.517v8.516h-8.517V73.874z"/>
		<path fill="#232323" d="M127.195,95.164h8.517v8.517h-8.517V95.164z"/>
		<path fill="#232323" d="M101.646,112.196h8.517v8.516h-8.517V112.196z"/>
		<path fill="#232323" d="M267.926,70.578c2.547-3.973,4.042-8.678,4.042-13.737c0-14.09-11.458-25.548-25.548-25.548h-17.565
			c-21.396-13.916-46.212-21.29-71.854-21.29c-13.145,0-26.076,2.011-38.522,5.803c-2.917-3.341-7.021-5.535-11.668-5.778
			c-4.751-0.26-9.21,1.406-12.633,4.651c-3.372,3.202-5.306,7.706-5.306,12.356v1.942c0,2.056,0.366,4.071,1.085,5.978l2.62,6.988
			c-5.514,1.821-10.616,4.77-14.968,8.63l-1.669-3.669c-0.851-1.869-2.023-3.547-3.458-4.986l-0.865-0.869
			c-6.696-6.703-17.211-7.192-23.933-1.137c-3.518,3.168-5.523,7.508-5.646,12.225c-0.118,4.649,1.694,9.207,4.981,12.489L48.392,66
			c1.447,1.447,3.125,2.611,4.998,3.461l7.813,3.551c1.657,0.755,2.661,2.491,2.441,4.242c-0.215,1.707-0.32,3.437-0.32,5.135
			c0,1.405-0.661,2.669-1.819,3.47c-1.162,0.805-2.585,0.971-3.891,0.491l-7.661-2.879c-1.919-0.719-3.93-1.081-5.978-1.081h-1.218
			c-9.475,0-17.262,7.082-17.735,16.125c-0.225,4.304,1.202,8.375,3.904,11.658c-2.567,10.373-3.925,21.059-3.925,31.829
			c0,72.782,59.211,131.999,131.999,131.999c72.786,0,131.999-59.217,131.999-131.999C289,116.479,281.675,91.881,267.926,70.578z
			 M263.452,56.841c0,9.394-7.64,17.032-17.032,17.032h-42.581c-9.394,0-17.032-7.639-17.032-17.032s7.639-17.032,17.032-17.032
			h42.581C255.813,39.809,263.452,47.448,263.452,56.841z M42.758,90.906h1.218c1.021,0,2.035,0.183,2.99,0.541l7.659,2.873
			c3.9,1.462,8.289,0.921,11.73-1.459c3.437-2.38,5.484-6.293,5.484-10.47c0-1.35,0.09-2.726,0.256-4.079
			c0.69-5.489-2.271-10.734-7.362-13.047l-7.813-3.551c-0.938-0.426-1.775-1.011-2.494-1.73l-1.377-1.378
			c-1.669-1.669-2.555-3.884-2.49-6.244c0.06-2.358,1.064-4.53,2.827-6.119c3.308-2.976,8.784-2.597,12.213,0.827l0.867,0.874
			c0.719,0.719,1.304,1.562,1.729,2.491L75.273,66l4.339-5.262c4.955-6.013,11.866-10.177,19.455-11.722l4.884-0.998L97.929,31.96
			c-0.357-0.952-0.54-1.958-0.54-2.983v-1.942c0-2.36,0.945-4.551,2.657-6.179c1.711-1.622,4.018-2.451,6.317-2.325
			c4.441,0.235,8.058,4.373,8.058,9.228v1.218c0,1.025-0.184,2.031-0.545,2.988l-6.018,16.049l4.885,0.998
			c7.589,1.545,14.496,5.709,19.453,11.722l4.34,5.262l7.076-15.562c0.432-0.938,1.01-1.78,1.734-2.505l1.371-1.37
			c1.665-1.669,3.871-2.551,6.245-2.491c2.359,0.06,4.533,1.064,6.119,2.828c2.977,3.304,2.603,8.784-0.834,12.225l-0.86,0.859
			c-0.72,0.719-1.558,1.303-2.495,1.729l-6.992,3.177c-5.449,2.476-8.704,8.188-8.099,14.217c0.111,1.081,0.167,2.175,0.167,3.287
			c0,4.177,2.048,8.09,5.484,10.47c3.44,2.381,7.821,2.93,11.734,1.456l7.651-2.869c0.959-0.357,1.973-0.541,2.994-0.541h1.218
			c4.859,0,8.993,3.611,9.228,8.052c0.122,2.37-0.702,4.616-2.328,6.327c-1.624,1.711-3.815,2.653-6.176,2.653h-1.941
			c-1.027,0-2.035-0.183-2.99-0.541l-7.659-2.875c-3.909-1.464-8.296-0.923-11.73,1.461c-3.437,2.381-5.484,6.294-5.484,10.471
			c0,1.389-0.09,2.751-0.256,4.083c-0.69,5.489,2.27,10.731,7.362,13.043l7.813,3.551c0.938,0.426,1.775,1.008,2.494,1.727
			l1.377,1.381c1.669,1.665,2.555,3.884,2.491,6.241c-0.062,2.36-1.065,4.531-2.828,6.119c-3.304,2.982-8.78,2.599-12.213-0.825
			l-0.867-0.873c-0.721-0.72-1.303-1.562-1.73-2.491l-7.076-15.571l-4.34,5.267c-4.957,6.013-11.86,10.177-19.453,11.722
			l-4.885,0.996l6.021,16.057c0.357,0.954,0.541,1.958,0.541,2.985v1.942c0,2.357-0.946,4.551-2.658,6.178
			c-1.711,1.627-4.05,2.436-6.318,2.326c-4.44-0.235-8.056-4.375-8.056-9.228v-1.219c0-1.027,0.183-2.031,0.544-2.989l6.018-16.049
			l-4.884-0.996c-7.593-1.545-14.5-5.709-19.455-11.722l-4.339-5.266l-7.077,15.563c-0.431,0.937-1.011,1.779-1.734,2.503
			l-1.37,1.372c-1.669,1.666-3.9,2.545-6.247,2.491c-2.358-0.06-4.53-1.065-6.119-2.828c-2.976-3.303-2.601-8.784,0.836-12.225
			l0.86-0.861c0.72-0.719,1.558-1.301,2.495-1.727l6.408-2.913c5.7-2.589,9.167-8.631,8.63-15.03
			c-0.072-0.898-0.114-1.811-0.114-2.734c0-4.177-2.048-8.09-5.484-10.471c-3.437-2.38-7.822-2.925-11.734-1.457l-7.655,2.875
			c-0.955,0.354-1.965,0.537-2.99,0.537h-1.941c-2.36,0-4.552-0.942-6.176-2.657c-1.625-1.711-2.451-3.957-2.328-6.323
			C33.766,94.517,37.899,90.906,42.758,90.906z M65.027,224.283c2.755-5.99,8.646-9.895,15.33-9.895h42.58
			c9.394,0,17.032,7.639,17.032,17.032s-7.639,17.032-17.032,17.032H94.531c-6.613-3.896-12.83-8.393-18.583-13.412
			c3.088-1.048,4.659-3.177,5.786-4.736c1.418-1.959,2.274-3.142,7.138-3.142v-8.517c-8.495,0-11.591,3.291-14.034,6.66
			c-1.189,1.643-1.341,1.856-2.998,1.856v4.129C69.481,229.04,67.203,226.716,65.027,224.283z M112.028,256.969h10.909
			c14.09,0,25.548-11.458,25.548-25.548s-11.458-25.548-25.548-25.548h-42.58c-8.712,0-16.505,4.407-21.133,11.416
			c-16.097-20.857-25.706-46.967-25.706-75.287c0-8.975,1.017-17.885,2.926-26.579c1.792,0.625,3.665,1.031,5.591,1.031h1.941
			c2.052,0,4.066-0.362,5.981-1.085l7.653-2.872c1.322-0.492,2.732-0.318,3.895,0.487c1.158,0.8,1.819,2.064,1.819,3.47
			c0,1.154,0.052,2.299,0.146,3.441c0.236,2.873-1.198,5.453-3.668,6.574l-6.412,2.917c-1.869,0.85-3.551,2.017-4.998,3.466
			l-0.856,0.854c-6.699,6.695-7.196,17.211-1.142,23.942c3.165,3.515,7.508,5.519,12.226,5.644
			c4.632,0.123,9.202-1.694,12.489-4.981l1.366-1.368c1.446-1.443,2.615-3.125,3.466-4.999l1.669-3.661
			c4.348,3.861,9.454,6.807,14.968,8.63l-2.615,6.979c-0.724,1.902-1.09,3.918-1.09,5.974v1.219c0,9.468,7.082,17.256,16.122,17.729
			c0.31,0.018,0.622,0.025,0.927,0.025c4.383,0,8.508-1.645,11.706-4.676c3.376-3.201,5.31-7.707,5.31-12.355v-1.942
			c0-2.056-0.366-4.071-1.086-5.978l-2.619-6.988c5.514-1.823,10.616-4.769,14.968-8.63l1.67,3.669
			c0.85,1.869,2.022,3.547,3.457,4.986l0.862,0.869c6.699,6.697,17.207,7.188,23.936,1.137c3.518-3.167,5.521-7.512,5.646-12.225
			c0.118-4.649-1.694-9.202-4.981-12.485l-1.372-1.374c-1.447-1.449-3.125-2.612-4.998-3.462l-7.813-3.551
			c-1.658-0.755-2.662-2.491-2.44-4.242c0.214-1.711,0.319-3.445,0.319-5.139c0-1.406,0.659-2.67,1.817-3.47
			c1.158-0.809,2.582-0.979,3.892-0.487l7.658,2.876c1.914,0.719,3.929,1.081,5.981,1.081h1.941c4.649,0,9.15-1.934,12.353-5.306
			c3.25-3.424,4.9-7.907,4.659-12.633c-0.475-9.044-8.261-16.125-17.735-16.125h-1.218c-2.044,0-4.059,0.362-5.981,1.085
			l-7.654,2.869c-1.319,0.495-2.731,0.324-3.896-0.485c-1.158-0.8-1.817-2.064-1.817-3.47c0-1.401-0.072-2.786-0.208-4.144
			c-0.242-2.389,1.025-4.641,3.15-5.607l6.992-3.177c1.869-0.85,3.551-2.019,4.998-3.466l0.856-0.856
			c6.697-6.693,7.195-17.211,1.142-23.941c-3.164-3.514-7.508-5.521-12.226-5.643c-4.684-0.163-9.202,1.694-12.488,4.981
			l-1.366,1.366c-1.449,1.445-2.616,3.127-3.466,5l-1.67,3.666c-4.348-3.865-9.454-6.813-14.968-8.63l2.615-6.98
			c0.724-1.911,1.09-3.925,1.09-5.981v-1.218c0-1.464-0.223-2.861-0.541-4.225c11.202-3.264,22.807-5.015,34.605-5.015
			c19.108,0,37.705,4.424,54.604,12.774h-7.766c-14.09,0-25.548,11.458-25.548,25.548s11.458,25.548,25.548,25.548h42.581
			c5.85,0,11.229-1.998,15.541-5.318c12.084,19.494,18.522,41.801,18.522,64.931c0,1.094-0.056,2.175-0.081,3.262
			c-10.563-20.094-29.733-33.068-51.016-33.068c-32.872,0-59.612,30.563-59.612,68.128c0,34.238,22.236,62.576,51.06,67.345
			c-18.64,11.3-40.491,17.815-63.833,17.815C141.135,265.484,125.976,262.445,112.028,256.969z M232.309,239.762
			c-0.967,0.081-1.934,0.176-2.922,0.176c-28.176,0-51.096-26.742-51.096-59.613c0-32.873,22.92-59.612,51.096-59.612
			c22.802,0,42.866,17.803,49.078,43.372c-3.002,16.559-9.308,31.973-18.219,45.539c-0.772-0.954-1.576-1.779-2.301-2.503
			c-2.087-2.087-3.01-3.112-3.01-5.505h-8.516c0,6.021,3.181,9.205,5.505,11.525c1.634,1.635,2.539,2.642,2.856,4.145
			C248.285,225.701,240.727,233.261,232.309,239.762z"/>
		<path fill="#232323" d="M234.402,147.26c4.161,3.612,7.761,6.737,7.761,16.032h8.516c0-13.183-5.932-18.327-10.697-22.46
			c-3.815-3.319-6.336-5.502-6.336-11.604h-8.516C225.129,139.212,230.269,143.676,234.402,147.26z"/>
		<path fill="#232323" d="M208.098,197.357c0-9.935-3.845-15.066-7.24-19.588c-3.096-4.121-5.535-7.379-5.535-14.478h-8.516
			c0,9.935,3.845,15.065,7.24,19.588c3.094,4.12,5.534,7.378,5.534,14.478H208.098z"/>
		<path fill="#232323" d="M216.613,180.324v8.516c9.354,0,11.816,1.643,14.67,3.543c3.501,2.329,7.46,4.975,19.396,4.975v-8.518
			c-9.356,0-11.816-1.645-14.668-3.542C232.508,182.969,228.548,180.324,216.613,180.324z"/>
		<path fill="#232323" d="M214.638,153.252c0.971-3.351,1.976-6.817,1.976-11.25h-8.516c0,3.223-0.724,5.718-1.641,8.878
			c-1.166,4.023-2.618,9.036-2.618,16.67h8.517C212.356,161.124,213.514,157.122,214.638,153.252z"/>
		<path fill="#232323" d="M225.13,205.873v-8.516c-7.069,0-11.088,2.319-14.64,4.367c-3.696,2.133-7.18,4.148-15.168,4.148v8.516
			c10.268,0,15.347-2.93,19.427-5.289C217.992,207.227,220.343,205.873,225.13,205.873z"/>
		<path fill="#232323" d="M263.452,171.809h8.516c0-6.021-3.181-9.207-5.505-11.526c-2.088-2.089-3.011-3.113-3.011-5.506h-8.517
			c0,6.021,3.182,9.207,5.505,11.527C262.529,168.389,263.452,169.415,263.452,171.809z"/>
		<path fill="#232323" d="M259.194,176.066h-8.516c0,6.021,3.181,9.207,5.505,11.526c2.088,2.085,3.011,3.112,3.011,5.507h8.517
			c0-6.022-3.182-9.207-5.506-11.527C260.117,179.484,259.194,178.459,259.194,176.066z"/>
		<path fill="#232323" d="M225.13,171.809c0-2.394,0.923-3.42,3.01-5.506c2.325-2.32,5.506-5.506,5.506-11.527h-8.516
			c0,2.393-0.924,3.417-3.011,5.506c-2.324,2.319-5.507,5.505-5.507,11.526H225.13z"/>
		<path fill="#232323" d="M220.872,214.389h-8.517c0,6.021,3.182,9.206,5.505,11.526c2.089,2.086,3.012,3.112,3.012,5.506h8.516
			c0-6.021-3.181-9.207-5.506-11.526C221.795,217.807,220.872,216.782,220.872,214.389z"/>
		<path fill="#232323" d="M237.904,205.872h-8.516c0,6.022,3.181,9.207,5.505,11.526c2.088,2.086,3.011,3.113,3.011,5.507h8.517
			c0-6.021-3.182-9.207-5.506-11.527C238.827,209.291,237.904,208.266,237.904,205.872z"/>
		<path fill="#232323" d="M127.195,239.938h8.517c0-6.021-3.182-9.207-5.506-11.527c-2.087-2.087-3.011-3.112-3.011-5.505h-8.516
			c0,6.021,3.181,9.206,5.505,11.526C126.272,236.518,127.195,237.544,127.195,239.938z"/>
		<path fill="#232323" d="M99.964,237.581c1.159,2.312,3.308,6.614,10.199,6.614v-8.516c-1.626,0-1.646-0.037-2.576-1.906
			c-1.158-2.312-3.309-6.61-10.198-6.61v8.517C99.014,235.68,99.031,235.712,99.964,237.581z"/>
		<path fill="#232323" d="M250.678,65.357h8.516c0-6.021-3.181-9.206-5.506-11.527c-2.087-2.087-3.01-3.112-3.01-5.505h-8.517
			c0,6.021,3.182,9.207,5.506,11.527C249.754,61.938,250.678,62.964,250.678,65.357z"/>
		<path fill="#232323" d="M198.321,50.727c-1.188,1.643-1.341,1.857-2.998,1.857V61.1c6.002,0,8.347-3.237,9.896-5.375
			c1.418-1.958,2.274-3.142,7.137-3.142v-8.516C203.86,44.067,200.764,47.358,198.321,50.727z"/>
		<path fill="#232323" d="M222.554,63.453c-1.158-2.312-3.308-6.612-10.198-6.612v8.516c1.625,0,1.643,0.033,2.576,1.902
			c1.158,2.312,3.309,6.614,10.198,6.614v-8.516C223.504,65.357,223.485,65.322,222.554,63.453z"/>
		<path fill="#232323" d="M223.448,54.486c1.158,2.312,3.309,6.614,10.198,6.614v-8.516c-1.626,0-1.645-0.036-2.576-1.904
			c-1.157-2.312-3.308-6.612-10.197-6.612v8.516C222.498,52.583,222.514,52.617,223.448,54.486z"/>
	</g>
</g>
</svg>
