<svg width="184" height="184" viewBox="0 0 184 184" fill="none" xmlns="http://www.w3.org/2000/svg">
<g clip-path="url(#clip0)" filter="url(#filter0_d)">
<path d="M156.839 77.0011C156.839 112.81 127.809 141.839 92.0006 141.839C56.1918 141.839 27.1624 112.81 27.1624 77.0011C27.1624 41.1923 56.1918 12.1628 92.0006 12.1628C127.809 12.1628 156.839 41.1923 156.839 77.0011Z" fill="#1ABC9C"/>
<path d="M155.866 88.1314C154.094 98.4407 149.901 107.886 143.871 115.904C140.24 120.767 135.917 125.089 131.077 128.742C130.298 128.806 129.52 128.872 128.742 128.872C113.224 128.872 100.646 114.347 100.646 96.4525C100.646 78.5566 113.224 64.0334 128.742 64.0334C141.753 64.0334 152.667 74.2562 155.866 88.1103V88.1314Z" fill="#F5F7FA"/>
<path d="M145.708 40.6699C145.492 40.9295 145.276 41.1891 145.038 41.4266C143.071 43.3715 140.37 44.582 137.387 44.582H115.775C109.809 44.582 104.968 39.7402 104.968 33.7756C104.968 30.7933 106.179 28.0917 108.124 26.1246C110.091 24.1796 112.792 22.9692 115.775 22.9692H137.387C143.352 22.9692 148.194 27.8099 148.194 33.7756C148.194 36.3906 147.264 38.7894 145.708 40.6699Z" fill="#FF958A"/>
<path d="M59.6681 133.194C53.2709 129.52 47.5648 124.787 42.8096 119.211C44.1931 114.801 48.2349 111.582 53.0978 111.582H74.7105C80.6751 111.582 85.5169 116.422 85.5169 122.388C85.5169 128.353 80.6751 133.194 74.7105 133.194H59.6681Z" fill="#FF958A"/>
<path d="M95.2203 49.315C95.9559 49.0343 96.7125 48.9045 97.4903 48.9045H98.1171C101.619 48.9045 104.774 51.5406 104.968 55.0422C105.162 58.7811 102.18 61.8721 98.4844 61.8721H97.4903C96.7125 61.8721 95.9559 61.7423 95.2203 61.4616L91.3304 59.9916C90.8334 59.7974 90.3363 59.7109 89.8393 59.7109C87.5482 59.7109 85.5167 61.5693 85.5167 64.0334C85.5167 64.8333 85.4735 65.6111 85.3658 66.3677C85.1495 68.2261 86.1647 69.998 87.8511 70.7547L91.8275 72.5698C92.5409 72.8948 93.1677 73.3265 93.7292 73.8889L94.4214 74.5802C97.0365 77.1952 96.95 81.4745 94.1618 83.9819C91.5679 86.3374 87.4838 85.9701 84.9975 83.4849L84.5659 83.0522C84.0034 82.4908 83.5718 81.8639 83.2478 81.1505L81.0865 76.3953C78.2984 79.767 74.4075 82.1879 69.9773 83.0955L72.1386 88.8659C72.4193 89.6014 72.5491 90.3581 72.5491 91.1359V92.13C72.5491 95.8257 69.4581 98.808 65.7191 98.6138C62.2176 98.4196 59.5814 95.2632 59.5814 91.7627V91.1359C59.5814 90.3581 59.7112 89.6014 59.992 88.8659L62.1532 83.0955C57.723 82.1879 53.8321 79.767 51.044 76.3953L48.8827 81.1505C48.5587 81.8639 48.1271 82.4908 47.5646 83.0522L46.8734 83.7445C44.2583 86.3595 39.9791 86.273 37.4716 83.4849C35.1162 80.8909 35.4834 76.8069 37.9687 74.3206L38.4014 73.8889C38.9628 73.3265 39.5897 72.8948 40.303 72.5698L43.5661 71.0786C45.6841 70.1278 46.8734 67.9233 46.6782 65.5889C46.6349 65.0919 46.6138 64.5516 46.6138 64.0334C46.6138 61.0289 43.6093 58.9542 40.8001 59.9916L36.9092 61.4616C36.1747 61.7423 35.418 61.8721 34.6403 61.8721H33.6462C32.003 61.8721 30.5119 61.2664 29.3669 60.2512C27.919 58.9975 27.0547 57.1169 27.1623 55.0422C27.3565 51.5406 30.5119 48.9045 34.0134 48.9045H34.6403C35.418 48.9045 36.1747 49.0343 36.9092 49.315L40.8001 50.785C41.2971 50.9792 41.7942 51.0658 42.2912 51.0658C44.5823 51.0658 46.6138 49.2074 46.6138 46.7432C46.6138 45.9433 46.6571 45.1655 46.7647 44.4089C46.981 42.5505 45.9658 40.7775 44.2795 40.0219L40.303 38.2057C39.5897 37.8818 38.9628 37.4491 38.4014 36.8877L37.7091 36.1964C35.094 33.5814 35.1806 29.3021 37.9687 26.7947C40.5627 24.4392 44.6467 24.8065 47.132 27.2917L47.5646 27.7234C48.1271 28.2858 48.5587 28.9127 48.8827 29.6261L51.044 34.3803C53.8321 31.0085 57.723 28.5887 62.1532 27.6811L59.992 21.9097C59.7112 21.1752 59.5814 20.4185 59.5814 19.6407V18.6466C59.5814 14.9509 62.6724 11.9686 66.4114 12.1628C68.6371 12.2926 70.5176 13.6107 71.5761 15.448C72.2029 16.5065 72.5491 17.7391 72.5491 19.0139V19.6407C72.5491 20.4185 72.4193 21.1752 72.1386 21.9097L69.9773 27.6811C74.4075 28.5887 78.2984 31.0085 81.0865 34.3803L83.2478 29.6261C83.5718 28.9127 84.0034 28.2858 84.5659 27.7234L85.2571 27.0321C87.8722 24.4171 92.1515 24.5036 94.6589 27.2917C97.0143 29.8846 96.6471 33.9697 94.1618 36.455L93.7292 36.8877C93.1677 37.4491 92.5409 37.8818 91.8275 38.2057L88.2827 39.8267C86.3378 40.7132 85.2139 42.7235 85.4302 44.8626C85.4735 45.4684 85.5167 46.1164 85.5167 46.7432C85.5167 49.7477 88.5212 51.8224 91.3304 50.785L95.2203 49.315Z" fill="#F9D48A"/>
<path d="M63.9038 33.7755H68.2264V38.0981H63.9038V33.7755Z" fill="#232323"/>
<path d="M53.0979 42.4209H57.4205V46.7435H53.0979V42.4209Z" fill="#232323"/>
<path d="M55.2588 53.227H59.5814V57.5496H55.2588V53.227Z" fill="#232323"/>
<path d="M63.9038 72.6785H68.2264V77.0011H63.9038V72.6785Z" fill="#232323"/>
<path d="M74.7104 64.0334H79.033V68.356H74.7104V64.0334Z" fill="#232323"/>
<path d="M53.0977 64.0334H57.4202V68.356H53.0977V64.0334Z" fill="#232323"/>
<path d="M68.2266 53.227H72.5491V57.5496H68.2266V53.227Z" fill="#232323"/>
<path d="M74.7104 40.2593H79.033V44.5819H74.7104V40.2593Z" fill="#232323"/>
<path d="M63.9038 42.4206H68.2264V46.7432H63.9038V42.4206Z" fill="#232323"/>
<path d="M76.8716 53.227H81.1942V57.5496H76.8716V53.227Z" fill="#232323"/>
<path d="M63.9038 61.8721H68.2264V66.1947H63.9038V61.8721Z" fill="#232323"/>
<path d="M148.304 40.7477C149.596 38.731 150.355 36.3429 150.355 33.7753C150.355 26.6234 144.539 20.8076 137.387 20.8076H128.472C117.612 13.7444 105.016 10.0013 92.0006 10.0013C85.329 10.0013 78.7649 11.0217 72.4479 12.9466C70.9673 11.2508 68.8841 10.1374 66.5255 10.0139C64.1141 9.88201 61.8504 10.7273 60.1134 12.3747C58.4017 13.9998 57.4203 16.2856 57.4203 18.6464V19.632C57.4203 20.6757 57.606 21.6983 57.9711 22.666L59.3008 26.2129C56.5021 27.1374 53.9124 28.6338 51.7036 30.5935L50.8562 28.7309C50.4246 27.7822 49.8294 26.9305 49.1012 26.2003L48.6622 25.7592C45.2631 22.3568 39.9264 22.1088 36.5146 25.1819C34.729 26.7902 33.7106 28.9926 33.6483 31.3871C33.5882 33.7468 34.5084 36.06 36.1769 37.7264L36.8734 38.4239C37.6079 39.1584 38.4595 39.7494 39.4103 40.181L43.3762 41.9835C44.2173 42.3666 44.727 43.2477 44.6151 44.1363C44.5064 45.0027 44.4526 45.8807 44.4526 46.7429C44.4526 47.4563 44.117 48.0979 43.5292 48.5042C42.9393 48.9126 42.2175 48.9971 41.5547 48.7533L37.6659 47.2917C36.6919 46.9266 35.6714 46.7429 34.6319 46.7429H34.0135C29.2044 46.7429 25.2523 50.3373 25.0117 54.9279C24.8977 57.1124 25.6217 59.1787 26.9936 60.845C25.6903 66.11 25.0011 71.5343 25.0011 77.0008C25.0011 113.943 55.0553 144 92.0006 144C128.945 144 159 113.943 159 77.0008C159 64.0458 155.282 51.5604 148.304 40.7477V40.7477ZM146.033 33.7753C146.033 38.5432 142.155 42.4204 137.387 42.4204H115.775C111.007 42.4204 107.13 38.5432 107.13 33.7753C107.13 29.0074 111.007 25.1302 115.775 25.1302H137.387C142.155 25.1302 146.033 29.0074 146.033 33.7753ZM34.0135 51.0655H34.6319C35.15 51.0655 35.665 51.1583 36.1494 51.3399L40.0372 52.7983C42.0169 53.5402 44.2447 53.2658 45.9912 52.0575C47.7357 50.8491 48.7752 48.863 48.7752 46.7429C48.7752 46.058 48.8205 45.3594 48.905 44.6724C49.2553 41.8864 47.7526 39.2238 45.1681 38.0503L41.2023 36.2479C40.7263 36.0315 40.301 35.735 39.9359 35.3699L39.2373 34.6702C38.3898 33.8228 37.9403 32.6989 37.973 31.5011C38.0036 30.3044 38.5133 29.2016 39.4082 28.3953C41.0872 26.8852 43.8669 27.0772 45.6071 28.8153L46.0472 29.2586C46.4123 29.6237 46.7089 30.0511 46.9252 30.5228L50.5175 38.4239L52.7199 35.7529C55.2347 32.701 58.7426 30.5872 62.5944 29.8031L65.0734 29.2965L62.0172 21.1464C61.8357 20.6631 61.7428 20.1523 61.7428 19.632V18.6464C61.7428 17.4486 62.223 16.3363 63.0915 15.51C63.96 14.6868 65.1314 14.2658 66.2986 14.3301C68.5527 14.4494 70.3879 16.5495 70.3879 19.0136V19.632C70.3879 20.1523 70.295 20.6631 70.1114 21.1485L67.0573 29.2944L69.5363 29.801C73.3881 30.5851 76.8949 32.6989 79.4108 35.7508L81.6132 38.4218L85.2055 30.5228C85.424 30.0469 85.7173 29.6195 86.0856 29.2512L86.7811 28.5557C87.6264 27.7083 88.7461 27.2609 89.9512 27.2915C91.149 27.3221 92.2518 27.8318 93.057 28.7267C94.5682 30.4036 94.3783 33.1854 92.6338 34.9319L92.1969 35.3677C91.8318 35.7329 91.4065 36.0294 90.9306 36.2458L87.3816 37.8583C84.6156 39.1152 82.964 42.0141 83.2711 45.0745C83.3271 45.6232 83.3555 46.1783 83.3555 46.7429C83.3555 48.863 84.395 50.8491 86.1395 52.0575C87.886 53.2658 90.1095 53.5444 92.0956 52.7962L95.9792 51.3399C96.4657 51.1583 96.9807 51.0655 97.4988 51.0655H98.1172C100.583 51.0655 102.681 52.8986 102.801 55.1527C102.863 56.3557 102.444 57.4955 101.619 58.364C100.795 59.2325 99.6822 59.7106 98.4845 59.7106H97.4988C96.9775 59.7106 96.4657 59.6177 95.9813 59.4362L92.0935 57.9767C90.1095 57.2338 87.8828 57.5081 86.1395 58.7186C84.395 59.9269 83.3555 61.913 83.3555 64.0331C83.3555 64.7381 83.3102 65.4293 83.2257 66.1058C82.8754 68.8918 84.3781 71.5522 86.9626 72.7257L90.9284 74.5282C91.4044 74.7445 91.8297 75.04 92.1948 75.4051L92.8934 76.1059C93.7408 76.9512 94.1904 78.0772 94.1577 79.2739C94.1271 80.4717 93.6174 81.5734 92.7225 82.3797C91.0456 83.893 88.2659 83.6988 86.5236 81.9607L86.0835 81.5175C85.7173 81.1524 85.4218 80.725 85.2055 80.2532L81.6132 72.35L79.4108 75.0231C76.8949 78.0751 73.3903 80.1889 69.5363 80.973L67.0573 81.4784L70.1135 89.6286C70.295 90.113 70.3879 90.6227 70.3879 91.144V92.1297C70.3879 93.3264 69.9077 94.4398 69.0392 95.2661C68.1707 96.0913 66.9835 96.5018 65.8321 96.4459C63.578 96.3267 61.7428 94.2255 61.7428 91.7624V91.144C61.7428 90.6227 61.8357 90.113 62.0193 89.6265L65.0734 81.4806L62.5944 80.9751C58.7404 80.191 55.2347 78.0772 52.7199 75.0252L50.5175 72.3521L46.9252 80.2511C46.7067 80.7271 46.4123 81.1545 46.0451 81.5217L45.3496 82.2182C44.5022 83.0635 43.3699 83.5099 42.1784 83.4825C40.9817 83.4519 39.8789 82.9422 39.0726 82.0473C37.5625 80.3704 37.7524 77.5886 39.4969 75.842L39.9338 75.4051C40.2989 75.04 40.7242 74.7445 41.2001 74.5282L44.4526 73.0497C47.3463 71.7358 49.1055 68.6691 48.8332 65.4209C48.7963 64.965 48.7752 64.5017 48.7752 64.0331C48.7752 61.913 47.7357 59.9269 45.9912 58.7186C44.2468 57.5103 42.0212 57.2338 40.0351 57.9788L36.1494 59.4383C35.665 59.6177 35.1522 59.7106 34.6319 59.7106H33.6462C32.4485 59.7106 31.3362 59.2325 30.512 58.3619C29.6867 57.4934 29.2678 56.3536 29.33 55.1527C29.4493 52.8986 31.5472 51.0655 34.0135 51.0655V51.0655ZM45.3169 118.765C46.7152 115.724 49.7049 113.742 53.0977 113.742H74.7104C79.4783 113.742 83.3555 117.62 83.3555 122.388C83.3555 127.155 79.4783 131.033 74.7104 131.033H60.2928C56.9359 129.055 53.7805 126.772 50.8604 124.225C52.4276 123.693 53.2254 122.612 53.7974 121.821C54.5171 120.827 54.9519 120.226 57.4203 120.226V115.904C53.1083 115.904 51.5369 117.574 50.2969 119.284C49.6933 120.118 49.6162 120.226 48.7752 120.226V122.322C47.5774 121.179 46.4218 119.999 45.3169 118.765ZM69.1732 135.355H74.7104C81.8623 135.355 87.6781 129.539 87.6781 122.388C87.6781 115.236 81.8623 109.42 74.7104 109.42H53.0977C48.676 109.42 44.7207 111.657 42.3715 115.215C34.2013 104.628 29.3237 91.3751 29.3237 77.0008C29.3237 72.445 29.8397 67.923 30.8085 63.5097C31.7182 63.8273 32.669 64.0331 33.6462 64.0331H34.6319C35.6735 64.0331 36.6961 63.8495 37.668 63.4823L41.5526 62.0249C42.2238 61.7748 42.9393 61.8634 43.5292 62.2718C44.117 62.6781 44.4526 63.3197 44.4526 64.0331C44.4526 64.6188 44.479 65.2003 44.5265 65.7797C44.6468 67.2381 43.9186 68.5477 42.6649 69.1166L39.4103 70.5972C38.4616 71.0288 37.6079 71.6208 36.8734 72.3564L36.4386 72.7901C33.0384 76.1882 32.7862 81.5259 35.8592 84.943C37.4654 86.7265 39.6699 87.7438 42.0644 87.8071C44.4157 87.8694 46.7352 86.9471 48.4037 85.2786L49.097 84.5842C49.8315 83.8518 50.4246 82.9981 50.8562 82.0473L51.7036 80.1889C53.9103 82.1486 56.5021 83.6439 59.3008 84.5694L57.9732 88.1121C57.606 89.0777 57.4203 90.1003 57.4203 91.144V91.7624C57.4203 96.5683 61.0146 100.522 65.6031 100.762C65.7604 100.771 65.9187 100.775 66.0738 100.775C68.2984 100.775 70.3921 99.94 72.0152 98.4014C73.729 96.7762 74.7104 94.4894 74.7104 92.1297V91.144C74.7104 90.1003 74.5247 89.0777 74.1596 88.11L72.8299 84.5631C75.6286 83.6376 78.2183 82.1422 80.4271 80.1825L81.2745 82.0451C81.7061 82.9939 82.3013 83.8455 83.0295 84.5758L83.4674 85.0169C86.8676 88.4161 92.2012 88.6651 95.6161 85.5942C97.4017 83.9859 98.419 81.7813 98.4824 79.3889C98.5425 77.0293 97.6223 74.7181 95.9538 73.0518L95.2573 72.3542C94.5228 71.6187 93.6712 71.0288 92.7204 70.5972L88.7545 68.7947C87.9134 68.4116 87.4037 67.5304 87.5156 66.6419C87.6243 65.7733 87.6781 64.8932 87.6781 64.0331C87.6781 63.3197 88.0126 62.6781 88.6004 62.2718C89.1882 61.8613 89.9111 61.7748 90.576 62.0249L94.4627 63.4844C95.4346 63.8495 96.4572 64.0331 97.4988 64.0331H98.4845C100.844 64.0331 103.129 63.0517 104.754 61.34C106.404 59.6019 107.241 57.3266 107.119 54.9279C106.878 50.3373 102.926 46.7429 98.1172 46.7429H97.4988C96.4614 46.7429 95.4388 46.9266 94.4627 47.2938L90.5781 48.7501C89.908 49.0013 89.1914 48.9148 88.6004 48.5042C88.0126 48.0979 87.6781 47.4563 87.6781 46.7429C87.6781 46.0317 87.6412 45.3288 87.5726 44.6397C87.4491 43.4271 88.0928 42.2842 89.1714 41.7935L92.7204 40.181C93.6691 39.7494 94.5228 39.1563 95.2573 38.4218L95.6921 37.987C99.0913 34.59 99.3445 29.2512 96.2715 25.8351C94.6653 24.0517 92.4608 23.0333 90.0663 22.971C87.6886 22.8887 85.3955 23.8311 83.727 25.4995L83.0337 26.1929C82.2981 26.9263 81.7061 27.7801 81.2745 28.7309L80.4271 30.5914C78.2204 28.6296 75.6286 27.1332 72.8299 26.2108L74.1575 22.6681C74.5247 21.6983 74.7104 20.6757 74.7104 19.632V19.0136C74.7104 18.2707 74.5975 17.5615 74.4361 16.8692C80.1221 15.2124 86.0118 14.3238 92.0006 14.3238C101.7 14.3238 111.139 16.5695 119.716 20.8076H115.775C108.623 20.8076 102.807 26.6234 102.807 33.7753C102.807 40.9271 108.623 46.7429 115.775 46.7429H137.387C140.357 46.7429 143.087 45.7288 145.276 44.0434C151.409 53.938 154.678 65.2605 154.678 77.0008C154.678 77.5559 154.649 78.1046 154.636 78.6566C149.274 68.457 139.544 61.8719 128.742 61.8719C112.057 61.8719 98.4845 77.3849 98.4845 96.4522C98.4845 113.831 109.771 128.214 124.401 130.635C114.94 136.37 103.849 139.678 92.0006 139.678C83.9476 139.678 76.2533 138.135 69.1732 135.355V135.355ZM130.225 126.621C129.734 126.663 129.244 126.71 128.742 126.71C114.441 126.71 102.807 113.137 102.807 96.4522C102.807 79.7667 114.441 66.1944 128.742 66.1944C140.316 66.1944 150.5 75.231 153.653 88.2092C152.129 96.6137 148.928 104.438 144.405 111.324C144.014 110.839 143.605 110.42 143.238 110.053C142.179 108.994 141.71 108.473 141.71 107.259H137.387C137.387 110.315 139.002 111.932 140.182 113.109C141.011 113.939 141.47 114.449 141.632 115.212C138.334 119.484 134.498 123.321 130.225 126.621Z" fill="#232323"/>
<path d="M131.288 79.67C133.399 81.5031 135.226 83.0892 135.226 87.8075H139.549C139.549 81.1158 136.538 78.5049 134.119 76.4069C132.183 74.7227 130.904 73.6146 130.904 70.5172H126.581C126.581 75.5848 129.19 77.8506 131.288 79.67V79.67Z" fill="#232323"/>
<path d="M117.936 105.098C117.936 100.055 115.985 97.4509 114.261 95.1556C112.69 93.0639 111.452 91.4102 111.452 87.8074H107.13C107.13 92.8497 109.081 95.4542 110.804 97.7495C112.374 99.8412 113.613 101.495 113.613 105.098H117.936Z" fill="#232323"/>
<path d="M122.258 96.4525V100.775C127.006 100.775 128.256 101.609 129.704 102.573C131.481 103.755 133.49 105.098 139.549 105.098V100.775C134.8 100.775 133.551 99.9403 132.103 98.9768C130.326 97.7948 128.316 96.4525 122.258 96.4525V96.4525Z" fill="#232323"/>
<path d="M121.256 82.7114C121.749 81.0102 122.259 79.251 122.259 77.001H117.936C117.936 78.6368 117.569 79.9032 117.103 81.5072C116.511 83.5493 115.775 86.0937 115.775 89.9688H120.097C120.097 86.7068 120.685 84.6753 121.256 82.7114Z" fill="#232323"/>
<path d="M126.581 109.42V105.098C122.993 105.098 120.953 106.275 119.151 107.315C117.274 108.398 115.507 109.42 111.452 109.42V113.743C116.663 113.743 119.241 112.256 121.312 111.058C122.958 110.107 124.152 109.42 126.581 109.42V109.42Z" fill="#232323"/>
<path d="M146.033 92.13H150.355C150.355 89.0738 148.74 87.4571 147.561 86.2793C146.501 85.2198 146.033 84.6995 146.033 83.4849H141.71C141.71 86.5411 143.325 88.1578 144.504 89.3356C145.564 90.394 146.033 90.9154 146.033 92.13Z" fill="#232323"/>
<path d="M143.871 94.2912H139.549C139.549 97.3474 141.163 98.9641 142.343 100.142C143.403 101.2 143.871 101.722 143.871 102.936H148.194C148.194 99.8802 146.579 98.2634 145.399 97.0857C144.34 96.0261 143.871 95.5059 143.871 94.2912Z" fill="#232323"/>
<path d="M126.581 92.13C126.581 90.9154 127.05 90.394 128.109 89.3356C129.289 88.1578 130.904 86.5411 130.904 83.4849H126.581C126.581 84.6995 126.112 85.2198 125.053 86.2793C123.873 87.4571 122.258 89.0738 122.258 92.13H126.581Z" fill="#232323"/>
<path d="M124.42 113.743H120.097C120.097 116.799 121.712 118.416 122.892 119.593C123.951 120.652 124.42 121.173 124.42 122.388H128.742C128.742 119.332 127.128 117.715 125.948 116.537C124.888 115.478 124.42 114.957 124.42 113.743Z" fill="#232323"/>
<path d="M133.065 109.42H128.742C128.742 112.476 130.357 114.093 131.537 115.271C132.596 116.329 133.065 116.851 133.065 118.065H137.387C137.387 115.009 135.773 113.392 134.593 112.215C133.533 111.155 133.065 110.635 133.065 109.42Z" fill="#232323"/>
<path d="M76.8717 126.71H81.1942C81.1942 123.654 79.5796 122.037 78.3998 120.86C77.3402 119.8 76.8717 119.28 76.8717 118.065H72.5491C72.5491 121.121 74.1637 122.738 75.3436 123.916C76.4031 124.974 76.8717 125.496 76.8717 126.71Z" fill="#232323"/>
<path d="M63.0502 125.515C63.638 126.688 64.7292 128.872 68.2265 128.872V124.549C67.4013 124.549 67.3918 124.531 66.919 123.582C66.3312 122.409 65.24 120.227 61.7427 120.227V124.549C62.5679 124.549 62.5764 124.566 63.0502 125.515V125.515Z" fill="#232323"/>
<path d="M139.549 38.0981H143.871C143.871 35.0419 142.257 33.4252 141.077 32.2474C140.017 31.1879 139.549 30.6676 139.549 29.4529H135.226C135.226 32.5091 136.841 34.1259 138.021 35.3036C139.08 36.3621 139.549 36.8834 139.549 38.0981Z" fill="#232323"/>
<path d="M112.974 30.6719C112.37 31.5056 112.293 31.6143 111.452 31.6143V35.9369C114.498 35.9369 115.688 34.2938 116.474 33.2089C117.194 32.2148 117.629 31.6143 120.097 31.6143V27.2917C115.785 27.2917 114.214 28.9623 112.974 30.6719Z" fill="#232323"/>
<path d="M125.273 37.1314C124.686 35.9579 123.594 33.7755 120.097 33.7755V38.0981C120.922 38.0981 120.931 38.115 121.405 39.0637C121.993 40.2372 123.084 42.4207 126.581 42.4207V38.0981C125.756 38.0981 125.746 38.0802 125.273 37.1314Z" fill="#232323"/>
<path d="M125.727 32.5799C126.315 33.7535 127.406 35.9369 130.904 35.9369V31.6143C130.078 31.6143 130.069 31.5964 129.596 30.6477C129.008 29.4741 127.917 27.2917 124.42 27.2917V31.6143C125.245 31.6143 125.253 31.6312 125.727 32.5799V32.5799Z" fill="#232323"/>
</g>
<defs>
<filter id="filter0_d" x="0" y="0" width="184" height="184" filterUnits="userSpaceOnUse" color-interpolation-filters="sRGB">
<feFlood flood-opacity="0" result="BackgroundImageFix"/>
<feColorMatrix in="SourceAlpha" type="matrix" values="0 0 0 0 0 0 0 0 0 0 0 0 0 0 0 0 0 0 127 0"/>
<feOffset dy="15"/>
<feGaussianBlur stdDeviation="12.5"/>
<feColorMatrix type="matrix" values="0 0 0 0 0 0 0 0 0 0 0 0 0 0 0 0 0 0 0.25 0"/>
<feBlend mode="normal" in2="BackgroundImageFix" result="effect1_dropShadow"/>
<feBlend mode="normal" in="SourceGraphic" in2="effect1_dropShadow" result="shape"/>
</filter>
<clipPath id="clip0">
<rect width="134" height="134" fill="white" transform="translate(25 10)"/>
</clipPath>
</defs>
</svg>
