<?xml version="1.0" standalone="no"?><!DOCTYPE svg PUBLIC "-//W3C//DTD SVG 1.1//EN" "http://www.w3.org/Graphics/SVG/1.1/DTD/svg11.dtd"><svg class="icon" height="512" viewBox="0 0 1024 1024" version="1.1" xmlns="http://www.w3.org/2000/svg"><path d="M891.127615 783.824244c-17.975982 19.63998-47.143952 19.63998-65.119934 0-17.991982-19.64798-17.991982-51.511948 0-71.159928 101.023897-110.343888 101.023897-289.847706 0-400.167594-17.991982-19.63998-17.991982-51.511948 0-71.159928 8.999991-9.82399 20.783979-14.727985 32.551967-14.727985 11.815988 0 23.591976 4.903995 32.559967 14.727985C1028.135476 390.904643 1028.135476 634.248396 891.127615 783.824244zM762.231746 663.112367c-16.031984 19.51198-41.991957 19.54398-58.023941-0.032-16.023984-19.54398-16.023984-51.271948 0-70.823928 17.447982-21.263978 27.055973-49.58395 27.055973-79.679919s-9.60799-58.415941-27.055973-79.679919c-16.023984-19.54398-16.023984-51.263948 0-70.815928 8.015992-9.79999 18.519981-14.679985 29.007971-14.679985 10.511989 0 20.999979 4.879995 29.015971 14.639985 32.919967 40.215959 51.055948 93.663905 51.055948 150.527847C813.287694 569.456462 795.159712 622.888407 762.231746 663.112367zM481.98403 994.61603 271.128245 783.760244 120.504398 783.760244c-58.64794 0-90.375908-33.775966-90.375908-90.375908L30.128489 331.896703c0-56.599943 31.727968-90.375908 90.375908-90.375908l150.623847 0L481.98403 30.657009c39.76796-40.847959 120.503878-40.903958 120.503878 0l0 933.831052C602.487908 1045.199978 520.063992 1031.823992 481.98403 994.61603zM512.112 121.032917 301.240214 331.896703c-12.943987-0.424-21.831978 0-30.119969 0L150.624367 331.896703c-19.54398 0-30.127969 12.079988-30.127969 30.119969l0 301.239694c0 18.015982 10.575989 30.127969 30.127969 30.127969l120.503878 0c8.279992 0 23.759976-0.503999 30.119969 0l210.863786 210.863786L512.112 121.032917z" /></svg>